<svg width="400" height="300" xmlns="http://www.w3.org/2000/svg">
  <defs>
    <linearGradient id="bg" x1="0%" y1="0%" x2="100%" y2="100%">
      <stop offset="0%" style="stop-color:#87ceeb;stop-opacity:1" />
      <stop offset="100%" style="stop-color:#e0f6ff;stop-opacity:1" />
    </linearGradient>
  </defs>
  <rect width="400" height="300" fill="url(#bg)"/>
  <rect y="220" width="400" height="80" fill="#333"/>
  <line x1="0" y1="240" x2="400" y2="240" stroke="#ffff00" stroke-width="2" stroke-dasharray="30,20"/>
  
  <!-- Modern Car -->
  <ellipse cx="200" cy="200" rx="110" ry="44" fill="#2a2a2a"/>
  <rect x="120" y="135" width="160" height="65" rx="14" fill="#2a2a2a"/>
  <polygon points="150,165 200,145 250,165 235,190 165,190" fill="#5dd4ff" opacity="0.85"/>
  <polygon points="210,165 250,145 270,165" fill="#5dd4ff" opacity="0.85"/>
  <circle cx="160" cy="215" r="27" fill="#222"/>
  <circle cx="160" cy="215" r="15" fill="#444"/>
  <circle cx="240" cy="215" r="27" fill="#222"/>
  <circle cx="240" cy="215" r="15" fill="#444"/>
  <rect x="120" y="200" width="160" height="2" fill="#666"/>
  <rect x="125" y="155" width="12" height="8" fill="#00ddff"/>
  <text x="200" y="290" font-size="24" font-weight="bold" fill="#333" text-anchor="middle">Modern Fleet</text>
</svg>